<svg width="99" height="40" viewBox="0 0 99 40" fill="none" xmlns="http://www.w3.org/2000/svg">
<path opacity="0.7" d="M11.9827 31.798L5.94434 21.2969H18.7391L24.7177 31.8379L11.9827 31.798Z" fill="white"/>
<path d="M36.704 31.7477L24.717 31.8374L12.5006 10.2967L18.4492 0L36.704 31.7477Z" fill="white"/>
<path d="M16.6991 40H4.76689L0 31.5931L5.94365 21.2964L16.6991 40Z" fill="white"/>
<path d="M50.6057 26.657L49.4588 30.651H44.667L51.1392 11.6084H56.0407L62.5129 30.651H57.7211L56.5493 26.657H50.6057ZM53.5625 15.9515C53.5625 15.9515 53.1387 18.0307 52.7897 19.2274L51.6977 22.9273H55.4523L54.3853 19.2274C54.0412 18.0307 53.6124 15.9515 53.6124 15.9515H53.5575H53.5625Z" fill="white"/>
<path d="M64.1035 16.9338H68.5264V19.2524C68.5264 19.7061 68.4715 20.105 68.4715 20.105H68.5264C69.1098 18.2402 70.845 16.6944 72.8944 16.6944C73.1586 16.6944 73.4279 16.7493 73.4279 16.7493V21.2768C73.4279 21.2768 73.0539 21.197 72.4955 21.197C71.4035 21.197 69.6184 21.5411 68.9552 23.5954C68.7956 24.099 68.7158 24.7124 68.7158 25.4603V30.651H64.1085V16.9387L64.1035 16.9338Z" fill="white"/>
<path d="M75.5521 16.9338H80.1594V30.646H75.5521V16.9338ZM75.6069 11.6084H80.1095V15.2035H75.6069V11.6084Z" fill="white"/>
<path d="M84.4725 25.8542C84.4725 25.8542 85.9883 27.2404 87.9629 27.2404C88.656 27.2404 89.3192 27.0559 89.3192 26.6022C89.3192 25.4055 82.9018 25.2708 82.9018 20.7981C82.9018 18.2152 85.38 16.6196 88.5463 16.6196C91.7126 16.6196 93.3681 18.1903 93.3681 18.1903L91.7974 21.4663C91.7974 21.4663 90.466 20.3494 88.5513 20.3494C87.8582 20.3494 87.195 20.5339 87.195 21.0125C87.195 22.0497 93.6124 22.2092 93.6124 26.6321C93.6124 28.9756 91.5331 30.9751 87.9928 30.9751C84.4526 30.9751 82.5079 28.9507 82.5079 28.9507L84.4775 25.8642L84.4725 25.8542Z" fill="white"/>
<path d="M96.4847 31.0146V31.2889H95.9562V32.6651H95.6321V31.2889H95.1035V31.0146H96.4847Z" fill="white"/>
<path d="M98.2698 32.6651L98.21 31.6928C98.205 31.5631 98.205 31.4086 98.2 31.234H98.1801C98.1352 31.3786 98.0903 31.5731 98.0404 31.7277L97.7413 32.6452H97.4022L97.103 31.7077C97.0731 31.5781 97.0232 31.3886 96.9883 31.239H96.9684C96.9684 31.3886 96.9634 31.5482 96.9584 31.6978L96.8986 32.6701H96.5844L96.7041 31.0196H97.1978L97.482 31.8274C97.5169 31.9571 97.5468 32.0767 97.5917 32.2463H97.5967C97.6415 32.0967 97.6764 31.9571 97.7113 31.8324L97.9956 31.0196H98.4693L98.5989 32.6701H98.2698V32.6651Z" fill="white"/>
</svg>
